<?xml version="1.0" encoding="UTF-8" standalone="no"?>
<!-- Created with Inkscape (http://www.inkscape.org/) -->

<svg
   xmlns:dc="http://purl.org/dc/elements/1.1/"
   xmlns:cc="http://creativecommons.org/ns#"
   xmlns:rdf="http://www.w3.org/1999/02/22-rdf-syntax-ns#"
   xmlns:svg="http://www.w3.org/2000/svg"
   xmlns="http://www.w3.org/2000/svg"
   xmlns:sodipodi="http://sodipodi.sourceforge.net/DTD/sodipodi-0.dtd"
   xmlns:inkscape="http://www.inkscape.org/namespaces/inkscape"
   width="210mm"
   height="297mm"
   viewBox="0 0 210 297"
   version="1.1"
   id="svg3531"
   inkscape:version="0.92.5 (2060ec1f9f, 2020-04-08)"
   sodipodi:docname="hand_drag.svg">
  <defs
     id="defs3525" />
  <sodipodi:namedview
     id="base"
     pagecolor="#ffffff"
     bordercolor="#666666"
     borderopacity="1.0"
     inkscape:pageopacity="0.0"
     inkscape:pageshadow="2"
     inkscape:zoom="0.7"
     inkscape:cx="617.95254"
     inkscape:cy="784.59381"
     inkscape:document-units="mm"
     inkscape:current-layer="layer1"
     showgrid="false"
     inkscape:window-width="1366"
     inkscape:window-height="744"
     inkscape:window-x="309"
     inkscape:window-y="1080"
     inkscape:window-maximized="1" />
  <metadata
     id="metadata3528">
    <rdf:RDF>
      <cc:Work
         rdf:about="">
        <dc:format>image/svg+xml</dc:format>
        <dc:type
           rdf:resource="http://purl.org/dc/dcmitype/StillImage" />
        <dc:title />
      </cc:Work>
    </rdf:RDF>
  </metadata>
  <g
     inkscape:label="Layer 1"
     inkscape:groupmode="layer"
     id="layer1">
    <rect
       style="color:#000000;clip-rule:nonzero;display:inline;overflow:visible;visibility:visible;opacity:1;isolation:auto;mix-blend-mode:normal;color-interpolation:sRGB;color-interpolation-filters:linearRGB;solid-color:#000000;solid-opacity:1;vector-effect:none;fill:#000000;fill-opacity:0.9807692;fill-rule:nonzero;stroke:#ffffff;stroke-width:0.95464116;stroke-linecap:round;stroke-linejoin:round;stroke-miterlimit:4;stroke-dasharray:none;stroke-dashoffset:0;stroke-opacity:0.41826926;paint-order:fill markers stroke;color-rendering:auto;image-rendering:auto;shape-rendering:auto;text-rendering:auto;enable-background:accumulate"
       id="rect4224"
       width="328.82141"
       height="89.882462"
       x="-2.7126448"
       y="46.261238"
       ry="4.5117173" />
    <rect
       style="color:#000000;clip-rule:nonzero;display:inline;overflow:visible;visibility:visible;opacity:1;isolation:auto;mix-blend-mode:normal;color-interpolation:sRGB;color-interpolation-filters:linearRGB;solid-color:#000000;solid-opacity:1;vector-effect:none;fill:#ffffff;fill-opacity:0.00392157;fill-rule:evenodd;stroke:#ffffff;stroke-width:0;stroke-linecap:round;stroke-linejoin:round;stroke-miterlimit:4;stroke-dasharray:none;stroke-dashoffset:0;stroke-opacity:0.95294118;paint-order:fill markers stroke;filter:url(#filter4049);color-rendering:auto;image-rendering:auto;shape-rendering:auto;text-rendering:auto;enable-background:accumulate"
       id="rect3483"
       width="20.336248"
       height="26.710297"
       x="26.668798"
       y="89.73317"
       ry="0"
       inkscape:export-filename="/home/cassiano/projetos/workspace-visualcode/ctpuzzle-test-platform/assets/ct/hand_tutorial_drag.png"
       inkscape:export-xdpi="96.18"
       inkscape:export-ydpi="96.18" />
    <rect
       inkscape:export-ydpi="96.18"
       inkscape:export-xdpi="96.18"
       inkscape:export-filename="/home/cassiano/projetos/workspace-visualcode/ctpuzzle-test-platform/assets/ct/hand_tutorial_drag.png"
       ry="0"
       y="89.73317"
       x="26.668798"
       height="26.710297"
       width="20.336248"
       id="rect3438"
       style="color:#000000;clip-rule:nonzero;display:inline;overflow:visible;visibility:visible;opacity:0.01000001;isolation:auto;mix-blend-mode:normal;color-interpolation:sRGB;color-interpolation-filters:linearRGB;solid-color:#000000;solid-opacity:1;vector-effect:none;fill:#ffffff;fill-opacity:0;fill-rule:evenodd;stroke:#ffffff;stroke-width:0;stroke-linecap:round;stroke-linejoin:round;stroke-miterlimit:4;stroke-dasharray:none;stroke-dashoffset:0;stroke-opacity:0.95294118;paint-order:fill markers stroke;filter:url(#filter4049);color-rendering:auto;image-rendering:auto;shape-rendering:auto;text-rendering:auto;enable-background:accumulate" />
    <path
       style="color:#000000;clip-rule:nonzero;display:inline;overflow:visible;visibility:visible;opacity:1;isolation:auto;mix-blend-mode:normal;color-interpolation:sRGB;color-interpolation-filters:linearRGB;solid-color:#000000;solid-opacity:1;vector-effect:none;fill:#008000;fill-opacity:1;fill-rule:evenodd;stroke:#000000;stroke-width:0.28679633;stroke-linecap:round;stroke-linejoin:round;stroke-miterlimit:4;stroke-dasharray:none;stroke-dashoffset:0;stroke-opacity:1;paint-order:fill markers stroke;filter:url(#filter4049);color-rendering:auto;image-rendering:auto;shape-rendering:auto;text-rendering:auto;enable-background:accumulate"
       d="m 33.763627,94.652144 c -1.005757,-0.02065 -1.393995,0.988111 -1.318952,1.870732 l 0.382042,4.493444 0.455662,6.46712 c 0.02301,3.05189 -2.021427,-0.6928 -2.653912,-1.40533 -1.133263,-1.11728 -2.19427,-1.1798 -2.556483,-0.73728 -0.404668,0.49437 0.03746,1.87038 1.826077,3.97491 1.271505,2.12695 1.515927,3.8345 3.058638,5.38849 0.365694,0.36836 0.396665,0.94692 0.917961,0.9597 l 7.500099,0.18382 c 0.912523,-0.06 1.168506,-0.72485 1.523364,-1.56933 0.949027,-2.25846 2.090154,-7.21007 2.588297,-10.79858 0.119175,-0.85852 0.284857,-1.7658 0.292084,-2.58284 0.0072,-0.81705 -0.262424,-1.362522 -0.940009,-1.348354 -0.874642,0.0183 -0.808071,1.298994 -1.307968,3.484764 l -0.901614,2.06086 -0.672216,-0.0977 c 0,0 0.250689,-1.87118 0.466566,-4.06689 0.166927,-1.697892 0.251096,-3.540151 0.244373,-4.911009 -0.004,-0.869452 -0.790037,-1.256988 -1.246709,-1.266487 -0.557997,-0.01365 -0.969727,0.413165 -1.030912,0.949755 l -0.555827,4.874611 -0.492679,3.9272 -0.615875,-0.0151 0.209813,-4.16128 0.20151,-5.175421 c -0.005,-0.746227 -0.482984,-1.650301 -1.329613,-1.618735 -0.605312,-0.01485 -1.391517,0.260353 -1.436791,1.629932 l -0.175029,5.294814 -0.178323,4.02179 -0.544257,-0.0134 -0.183867,-3.65537 -0.292282,-4.529596 c -0.06195,-0.666733 -0.227402,-1.609002 -1.233161,-1.629572 z"
       id="path3485"
       inkscape:connector-curvature="0"
       sodipodi:nodetypes="cscccsccscsszscccsscsccccccsccccczc"
       inkscape:export-filename="/home/cassiano/projetos/workspace-visualcode/ctpuzzle-test-platform/assets/ct/hand_tutorial_drag.png"
       inkscape:export-xdpi="96.18"
       inkscape:export-ydpi="96.18" />
    <rect
       inkscape:export-ydpi="96.18"
       inkscape:export-xdpi="96.18"
       inkscape:export-filename="/home/cassiano/projetos/workspace-visualcode/ctpuzzle-test-platform/assets/ct/hand_tutorial_drag.png"
       ry="0"
       y="89.73317"
       x="47.005047"
       height="26.710297"
       width="20.336248"
       id="rect3519"
       style="color:#000000;clip-rule:nonzero;display:inline;overflow:visible;visibility:visible;opacity:1;isolation:auto;mix-blend-mode:normal;color-interpolation:sRGB;color-interpolation-filters:linearRGB;solid-color:#000000;solid-opacity:1;vector-effect:none;fill:#ffffff;fill-opacity:0.00392157;fill-rule:evenodd;stroke:#ffffff;stroke-width:0;stroke-linecap:round;stroke-linejoin:round;stroke-miterlimit:4;stroke-dasharray:none;stroke-dashoffset:0;stroke-opacity:0.95294118;paint-order:fill markers stroke;filter:url(#filter4049);color-rendering:auto;image-rendering:auto;shape-rendering:auto;text-rendering:auto;enable-background:accumulate" />
    <rect
       style="color:#000000;clip-rule:nonzero;display:inline;overflow:visible;visibility:visible;opacity:0.01000001;isolation:auto;mix-blend-mode:normal;color-interpolation:sRGB;color-interpolation-filters:linearRGB;solid-color:#000000;solid-opacity:1;vector-effect:none;fill:#ffffff;fill-opacity:0;fill-rule:evenodd;stroke:#ffffff;stroke-width:0;stroke-linecap:round;stroke-linejoin:round;stroke-miterlimit:4;stroke-dasharray:none;stroke-dashoffset:0;stroke-opacity:0.95294118;paint-order:fill markers stroke;filter:url(#filter4049);color-rendering:auto;image-rendering:auto;shape-rendering:auto;text-rendering:auto;enable-background:accumulate"
       id="rect3521"
       width="20.336248"
       height="26.710297"
       x="47.005047"
       y="89.73317"
       ry="0"
       inkscape:export-filename="/home/cassiano/projetos/workspace-visualcode/ctpuzzle-test-platform/assets/ct/hand_tutorial_drag.png"
       inkscape:export-xdpi="96.18"
       inkscape:export-ydpi="96.18" />
    <path
       inkscape:export-ydpi="96.18"
       inkscape:export-xdpi="96.18"
       inkscape:export-filename="/home/cassiano/projetos/workspace-visualcode/ctpuzzle-test-platform/assets/ct/hand_tutorial_drag.png"
       sodipodi:nodetypes="cscccsccscssascccsscsccccccsccccczc"
       inkscape:connector-curvature="0"
       id="path3523"
       d="m 53.639964,94.920426 c -1.00576,-0.02065 -1.492063,1.002006 -1.318952,1.870732 l 0.841953,4.225162 0.455662,6.46712 c 0.023,3.05189 -1.523187,-0.8461 -2.15567,-1.55864 -1.133264,-1.11728 -2.347577,-1.17979 -2.70979,-0.73728 -0.404669,0.49438 0.03746,1.87039 1.826078,3.97492 1.271507,2.12695 1.17099,3.9878 2.713702,5.54179 0.365693,0.36836 0.396667,0.94692 0.91796,0.9597 l 7.500102,0.18382 c 0.912523,-0.06 1.168506,-0.72485 1.523365,-1.56933 0.949026,-2.25846 2.090154,-7.21007 2.588296,-10.79858 0.119176,-0.85852 0.09058,-1.58545 -0.167827,-2.31456 -0.183022,-0.51642 -0.262425,-1.36252 -0.940009,-1.348352 -0.874649,0.0183 -0.619165,1.030712 -0.848063,3.216482 l -0.901613,2.06086 -0.672211,-0.0977 c 0,0 0.250689,-1.87118 0.466561,-4.06689 0.166932,-1.697892 -0.208811,-3.271869 -0.215533,-4.642727 -0.004,-0.869452 -0.790038,-1.256988 -1.246709,-1.266487 -0.557997,-0.01365 -1.019671,0.409805 -1.030913,0.949755 l -0.09592,4.606329 -0.492682,3.9272 -0.615872,-0.0151 0.209815,-4.16128 -0.258404,-4.907139 c -0.0052,-0.746227 -0.482982,-1.6503 -1.32961,-1.618736 -0.605319,-0.01485 -1.514331,0.261801 -1.436793,1.629932 l 0.284881,5.026533 -0.178325,4.02179 -0.544253,-0.0134 -0.183871,-3.65537 -0.752192,-4.261314 c -0.06195,-0.666732 -0.2274,-1.609002 -1.233161,-1.629571 z"
       style="color:#000000;clip-rule:nonzero;display:inline;overflow:visible;visibility:visible;opacity:1;isolation:auto;mix-blend-mode:normal;color-interpolation:sRGB;color-interpolation-filters:linearRGB;solid-color:#000000;solid-opacity:1;vector-effect:none;fill:#008000;fill-opacity:1;fill-rule:evenodd;stroke:#000000;stroke-width:0.28679633;stroke-linecap:round;stroke-linejoin:round;stroke-miterlimit:4;stroke-dasharray:none;stroke-dashoffset:0;stroke-opacity:1;paint-order:fill markers stroke;filter:url(#filter4049);color-rendering:auto;image-rendering:auto;shape-rendering:auto;text-rendering:auto;enable-background:accumulate" />
    <rect
       style="color:#000000;clip-rule:nonzero;display:inline;overflow:visible;visibility:visible;opacity:1;isolation:auto;mix-blend-mode:normal;color-interpolation:sRGB;color-interpolation-filters:linearRGB;solid-color:#000000;solid-opacity:1;vector-effect:none;fill:#ffffff;fill-opacity:0.00392157;fill-rule:evenodd;stroke:#ffffff;stroke-width:0;stroke-linecap:round;stroke-linejoin:round;stroke-miterlimit:4;stroke-dasharray:none;stroke-dashoffset:0;stroke-opacity:0.95294118;paint-order:fill markers stroke;filter:url(#filter4049);color-rendering:auto;image-rendering:auto;shape-rendering:auto;text-rendering:auto;enable-background:accumulate"
       id="rect4118"
       width="20.336248"
       height="26.710297"
       x="67.341293"
       y="89.73317"
       ry="0"
       inkscape:export-filename="/home/cassiano/projetos/workspace-visualcode/ctpuzzle-test-platform/assets/ct/hand_tutorial_drag.png"
       inkscape:export-xdpi="96.18"
       inkscape:export-ydpi="96.18" />
    <rect
       inkscape:export-ydpi="96.18"
       inkscape:export-xdpi="96.18"
       inkscape:export-filename="/home/cassiano/projetos/workspace-visualcode/ctpuzzle-test-platform/assets/ct/hand_tutorial_drag.png"
       ry="0"
       y="89.73317"
       x="67.341293"
       height="26.710297"
       width="20.336248"
       id="rect4120"
       style="color:#000000;clip-rule:nonzero;display:inline;overflow:visible;visibility:visible;opacity:0.01000001;isolation:auto;mix-blend-mode:normal;color-interpolation:sRGB;color-interpolation-filters:linearRGB;solid-color:#000000;solid-opacity:1;vector-effect:none;fill:#008000;fill-opacity:0;fill-rule:evenodd;stroke:#ffffff;stroke-width:0;stroke-linecap:round;stroke-linejoin:round;stroke-miterlimit:4;stroke-dasharray:none;stroke-dashoffset:0;stroke-opacity:0.95294118;paint-order:fill markers stroke;filter:url(#filter4049);color-rendering:auto;image-rendering:auto;shape-rendering:auto;text-rendering:auto;enable-background:accumulate" />
    <path
       style="color:#000000;clip-rule:nonzero;display:inline;overflow:visible;visibility:visible;opacity:1;isolation:auto;mix-blend-mode:normal;color-interpolation:sRGB;color-interpolation-filters:linearRGB;solid-color:#000000;solid-opacity:1;vector-effect:none;fill:#008000;fill-opacity:1;fill-rule:evenodd;stroke:#000000;stroke-width:0.28679633;stroke-linecap:round;stroke-linejoin:round;stroke-miterlimit:4;stroke-dasharray:none;stroke-dashoffset:0;stroke-opacity:1;paint-order:fill markers stroke;filter:url(#filter4049);color-rendering:auto;image-rendering:auto;shape-rendering:auto;text-rendering:auto;enable-background:accumulate"
       d="m 73.672684,95.223952 c -1.005761,-0.02065 -1.567313,1.020456 -1.318953,1.870732 l 1.145482,3.921636 0.455661,6.46712 c 0.023,3.05189 -1.331555,-0.76945 -1.964038,-1.48198 -1.133265,-1.11729 -2.079297,-1.21813 -2.441509,-0.77561 -0.404669,0.49437 -0.269152,1.98536 1.51947,4.08989 1.271506,2.12695 1.017685,3.8345 2.560397,5.38849 0.365694,0.36836 0.396668,0.94692 0.91796,0.9597 l 7.5001,0.18382 c 0.912522,-0.06 1.168505,-0.72485 1.523364,-1.56933 0.949031,-2.25846 2.090155,-6.5647 2.5883,-10.1532 0.119174,-0.85852 -0.158732,-2.05032 -0.356381,-2.75223 -0.152048,-0.53996 -0.377401,-1.2667 -1.054982,-1.25254 -0.874651,0.0183 -0.253938,1.96887 -0.544537,2.91296 -0.220583,0.71664 -0.901612,2.06086 -0.901612,2.06086 l -0.672212,-0.0977 c 0,0 0.25069,-1.87118 0.466558,-4.06689 0.166936,-1.697892 -0.512338,-2.968343 -0.519055,-4.339201 -0.0041,-0.869452 -0.790038,-1.256988 -1.246712,-1.266486 -0.558,-0.01365 -1.056936,0.410315 -1.030911,0.949754 l 0.207608,4.302803 -0.492679,3.9272 -0.615874,-0.0151 0.209818,-4.16128 -0.561931,-4.603613 c -0.0055,-0.746226 -0.482988,-1.6503 -1.329611,-1.618736 -0.60532,-0.01485 -1.606205,0.270118 -1.436795,1.629932 l 0.588409,4.723007 -0.178324,4.02179 -0.544253,-0.0134 -0.183871,-3.65537 -1.05572,-3.957788 C 74.843903,96.1865 74.67845,95.244231 73.67269,95.223662 Z"
       id="path4122"
       inkscape:connector-curvature="0"
       sodipodi:nodetypes="cscccsccscsssssccsscsccccccsccccczc"
       inkscape:export-filename="/home/cassiano/projetos/workspace-visualcode/ctpuzzle-test-platform/assets/ct/hand_tutorial_drag.png"
       inkscape:export-xdpi="96.18"
       inkscape:export-ydpi="96.18" />
    <rect
       inkscape:export-ydpi="96.18"
       inkscape:export-xdpi="96.18"
       inkscape:export-filename="/home/cassiano/projetos/workspace-visualcode/ctpuzzle-test-platform/assets/ct/hand_tutorial_drag.png"
       ry="0"
       y="89.73317"
       x="87.677536"
       height="26.710297"
       width="20.336248"
       id="rect4124"
       style="color:#000000;clip-rule:nonzero;display:inline;overflow:visible;visibility:visible;opacity:1;isolation:auto;mix-blend-mode:normal;color-interpolation:sRGB;color-interpolation-filters:linearRGB;solid-color:#000000;solid-opacity:1;vector-effect:none;fill:#ffffff;fill-opacity:0.00392157;fill-rule:evenodd;stroke:#ffffff;stroke-width:0;stroke-linecap:round;stroke-linejoin:round;stroke-miterlimit:4;stroke-dasharray:none;stroke-dashoffset:0;stroke-opacity:0.95294118;paint-order:fill markers stroke;filter:url(#filter4049);color-rendering:auto;image-rendering:auto;shape-rendering:auto;text-rendering:auto;enable-background:accumulate" />
    <rect
       style="color:#000000;clip-rule:nonzero;display:inline;overflow:visible;visibility:visible;opacity:0.01000001;isolation:auto;mix-blend-mode:normal;color-interpolation:sRGB;color-interpolation-filters:linearRGB;solid-color:#000000;solid-opacity:1;vector-effect:none;fill:#ffffff;fill-opacity:0;fill-rule:evenodd;stroke:#ffffff;stroke-width:0;stroke-linecap:round;stroke-linejoin:round;stroke-miterlimit:4;stroke-dasharray:none;stroke-dashoffset:0;stroke-opacity:0.95294118;paint-order:fill markers stroke;filter:url(#filter4049);color-rendering:auto;image-rendering:auto;shape-rendering:auto;text-rendering:auto;enable-background:accumulate"
       id="rect4126"
       width="20.336248"
       height="26.710297"
       x="87.677536"
       y="89.73317"
       ry="0"
       inkscape:export-filename="/home/cassiano/projetos/workspace-visualcode/ctpuzzle-test-platform/assets/ct/hand_tutorial_drag.png"
       inkscape:export-xdpi="96.18"
       inkscape:export-ydpi="96.18" />
    <path
       inkscape:export-ydpi="96.18"
       inkscape:export-xdpi="96.18"
       inkscape:export-filename="/home/cassiano/projetos/workspace-visualcode/ctpuzzle-test-platform/assets/ct/hand_tutorial_drag.png"
       sodipodi:nodetypes="ccccsccscsssssccsscsccccccscccccc"
       inkscape:connector-curvature="0"
       id="path4128"
       d="m 92.717074,100.26106 0.67162,2.10869 0.68562,5.11369 c 0.02299,3.05189 -1.045813,-0.4489 -1.678296,-1.16143 -1.133264,-1.11728 -2.194268,-1.1798 -2.556485,-0.73728 -0.404666,0.49437 -0.287749,1.70778 1.148571,3.83941 1.271504,2.12696 1.217816,3.7261 2.760529,5.28009 0.365693,0.36836 0.396667,0.94692 0.91796,0.9597 l 7.500107,0.18382 c 0.91252,-0.06 1.1685,-0.72485 1.52336,-1.56933 0.94902,-2.25846 1.8602,-5.64487 2.35834,-9.23338 0.11918,-0.85852 -0.15873,-1.61671 -0.35638,-2.31862 -0.15205,-0.53996 -0.27008,-1.31086 -1.05498,-1.25253 -0.98204,0.073 -0.20168,1.55295 -0.54454,2.47934 -0.16154,0.43648 -0.69876,1.20879 -0.69876,1.20879 l -0.6451,-0.16545 c 0,0 0.19748,-0.5075 0.2366,-2.71345 0.0136,-0.7685 -0.0141,-1.63023 -0.28911,-2.675318 -0.22126,-0.840838 -0.79004,-1.256988 -1.24671,-1.266487 -0.55799,-0.01365 -1.02634,0.409708 -1.03091,0.949755 l -0.0223,2.63891 -0.26273,2.57377 -0.615874,-0.0151 -0.02017,-2.80785 -0.331979,-2.93972 c -0.0048,-0.746227 -0.577831,-1.63675 -1.424461,-1.605185 -0.605315,-0.01485 -1.498255,0.554728 -1.328393,1.914487 l 0.344906,2.761008 0.05162,2.66836 -0.544255,-0.0134 -0.413819,-2.30194 -0.825768,-2.293895 c -0.443823,-1.989878 -2.904365,-1.442408 -2.308245,0.390505 z"
       style="color:#000000;clip-rule:nonzero;display:inline;overflow:visible;visibility:visible;opacity:1;isolation:auto;mix-blend-mode:normal;color-interpolation:sRGB;color-interpolation-filters:linearRGB;solid-color:#000000;solid-opacity:1;vector-effect:none;fill:#008000;fill-opacity:1;fill-rule:evenodd;stroke:#000000;stroke-width:0.28679633;stroke-linecap:round;stroke-linejoin:round;stroke-miterlimit:4;stroke-dasharray:none;stroke-dashoffset:0;stroke-opacity:1;paint-order:fill markers stroke;filter:url(#filter4049);color-rendering:auto;image-rendering:auto;shape-rendering:auto;text-rendering:auto;enable-background:accumulate" />
    <rect
       inkscape:export-ydpi="96.18"
       inkscape:export-xdpi="96.18"
       inkscape:export-filename="/home/cassiano/projetos/workspace-visualcode/ctpuzzle-test-platform/assets/ct/hand_tutorial_drag.png"
       ry="0"
       y="89.73317"
       x="108.01378"
       height="26.710297"
       width="20.336248"
       id="rect4206"
       style="color:#000000;clip-rule:nonzero;display:inline;overflow:visible;visibility:visible;opacity:1;isolation:auto;mix-blend-mode:normal;color-interpolation:sRGB;color-interpolation-filters:linearRGB;solid-color:#000000;solid-opacity:1;vector-effect:none;fill:#ffffff;fill-opacity:0.00392157;fill-rule:evenodd;stroke:#ffffff;stroke-width:0;stroke-linecap:round;stroke-linejoin:round;stroke-miterlimit:4;stroke-dasharray:none;stroke-dashoffset:0;stroke-opacity:0.95294118;paint-order:fill markers stroke;filter:url(#filter4049);color-rendering:auto;image-rendering:auto;shape-rendering:auto;text-rendering:auto;enable-background:accumulate" />
    <rect
       style="color:#000000;clip-rule:nonzero;display:inline;overflow:visible;visibility:visible;opacity:0.01000001;isolation:auto;mix-blend-mode:normal;color-interpolation:sRGB;color-interpolation-filters:linearRGB;solid-color:#000000;solid-opacity:1;vector-effect:none;fill:#ffffff;fill-opacity:0;fill-rule:evenodd;stroke:#ffffff;stroke-width:0;stroke-linecap:round;stroke-linejoin:round;stroke-miterlimit:4;stroke-dasharray:none;stroke-dashoffset:0;stroke-opacity:0.95294118;paint-order:fill markers stroke;filter:url(#filter4049);color-rendering:auto;image-rendering:auto;shape-rendering:auto;text-rendering:auto;enable-background:accumulate"
       id="rect4208"
       width="20.336248"
       height="26.710297"
       x="108.01378"
       y="89.73317"
       ry="0"
       inkscape:export-filename="/home/cassiano/projetos/workspace-visualcode/ctpuzzle-test-platform/assets/ct/hand_tutorial_drag.png"
       inkscape:export-xdpi="96.18"
       inkscape:export-ydpi="96.18" />
    <path
       inkscape:export-ydpi="96.18"
       inkscape:export-xdpi="96.18"
       inkscape:export-filename="/home/cassiano/projetos/workspace-visualcode/ctpuzzle-test-platform/assets/ct/hand_tutorial_drag.png"
       sodipodi:nodetypes="cscccsccscsssssccsscsccccccsccccczc"
       inkscape:connector-curvature="0"
       id="path4210"
       d="m 114.12837,95.223952 c -1.00576,-0.02065 -1.56732,1.020456 -1.31896,1.870732 l 1.14548,3.921636 0.45566,6.46712 c 0.023,3.05189 -1.33155,-0.76945 -1.96403,-1.48198 -1.13326,-1.11729 -2.0793,-1.21813 -2.44151,-0.77561 -0.40467,0.49437 -0.26915,1.98536 1.51947,4.08989 1.27151,2.12695 1.01769,3.8345 2.5604,5.38849 0.36569,0.36836 0.39667,0.94692 0.91796,0.9597 l 7.5001,0.18382 c 0.91253,-0.06 1.16851,-0.72485 1.52336,-1.56933 0.94903,-2.25846 2.09015,-6.5647 2.5883,-10.1532 0.11917,-0.85852 -0.15873,-2.05032 -0.35638,-2.75223 -0.15205,-0.53996 -0.3774,-1.2667 -1.05498,-1.25254 -0.87465,0.0183 -0.25394,1.96887 -0.54454,2.91296 -0.22058,0.71664 -0.90161,2.06086 -0.90161,2.06086 l -0.67221,-0.0977 c 0,0 0.25069,-1.87118 0.46656,-4.06689 0.16693,-1.697892 -0.51234,-2.968343 -0.51906,-4.339201 -0.004,-0.869452 -0.79004,-1.256988 -1.24671,-1.266486 -0.558,-0.01365 -1.05694,0.410315 -1.03091,0.949754 l 0.2076,4.302803 -0.49268,3.9272 -0.61587,-0.0151 0.20982,-4.16128 -0.56193,-4.603613 c -0.005,-0.746226 -0.48298,-1.6503 -1.32961,-1.618736 -0.60532,-0.01485 -1.60621,0.270118 -1.4368,1.629932 l 0.58841,4.723007 -0.17832,4.02179 -0.54425,-0.0134 -0.18388,-3.65537 -1.05572,-3.957788 c -0.0619,-0.666732 -0.2274,-1.609001 -1.23316,-1.62957 z"
       style="color:#000000;clip-rule:nonzero;display:inline;overflow:visible;visibility:visible;opacity:1;isolation:auto;mix-blend-mode:normal;color-interpolation:sRGB;color-interpolation-filters:linearRGB;solid-color:#000000;solid-opacity:1;vector-effect:none;fill:#008000;fill-opacity:1;fill-rule:evenodd;stroke:#000000;stroke-width:0.28679633;stroke-linecap:round;stroke-linejoin:round;stroke-miterlimit:4;stroke-dasharray:none;stroke-dashoffset:0;stroke-opacity:1;paint-order:fill markers stroke;filter:url(#filter4049);color-rendering:auto;image-rendering:auto;shape-rendering:auto;text-rendering:auto;enable-background:accumulate" />
    <rect
       style="color:#000000;clip-rule:nonzero;display:inline;overflow:visible;visibility:visible;opacity:1;isolation:auto;mix-blend-mode:normal;color-interpolation:sRGB;color-interpolation-filters:linearRGB;solid-color:#000000;solid-opacity:1;vector-effect:none;fill:#ffffff;fill-opacity:0.00392157;fill-rule:evenodd;stroke:#ffffff;stroke-width:0;stroke-linecap:round;stroke-linejoin:round;stroke-miterlimit:4;stroke-dasharray:none;stroke-dashoffset:0;stroke-opacity:0.95294118;paint-order:fill markers stroke;filter:url(#filter4049);color-rendering:auto;image-rendering:auto;shape-rendering:auto;text-rendering:auto;enable-background:accumulate"
       id="rect4212"
       width="20.336248"
       height="26.710297"
       x="128.35002"
       y="89.73317"
       ry="0"
       inkscape:export-filename="/home/cassiano/projetos/workspace-visualcode/ctpuzzle-test-platform/assets/ct/hand_tutorial_drag.png"
       inkscape:export-xdpi="96.18"
       inkscape:export-ydpi="96.18" />
    <rect
       inkscape:export-ydpi="96.18"
       inkscape:export-xdpi="96.18"
       inkscape:export-filename="/home/cassiano/projetos/workspace-visualcode/ctpuzzle-test-platform/assets/ct/hand_tutorial_drag.png"
       ry="0"
       y="89.73317"
       x="128.35002"
       height="26.710297"
       width="20.336248"
       id="rect4214"
       style="color:#000000;clip-rule:nonzero;display:inline;overflow:visible;visibility:visible;opacity:0.01000001;isolation:auto;mix-blend-mode:normal;color-interpolation:sRGB;color-interpolation-filters:linearRGB;solid-color:#000000;solid-opacity:1;vector-effect:none;fill:#ffffff;fill-opacity:0;fill-rule:evenodd;stroke:#ffffff;stroke-width:0;stroke-linecap:round;stroke-linejoin:round;stroke-miterlimit:4;stroke-dasharray:none;stroke-dashoffset:0;stroke-opacity:0.95294118;paint-order:fill markers stroke;filter:url(#filter4049);color-rendering:auto;image-rendering:auto;shape-rendering:auto;text-rendering:auto;enable-background:accumulate" />
    <path
       style="color:#000000;clip-rule:nonzero;display:inline;overflow:visible;visibility:visible;opacity:1;isolation:auto;mix-blend-mode:normal;color-interpolation:sRGB;color-interpolation-filters:linearRGB;solid-color:#000000;solid-opacity:1;vector-effect:none;fill:#008000;fill-opacity:1;fill-rule:evenodd;stroke:#000000;stroke-width:0.28679633;stroke-linecap:round;stroke-linejoin:round;stroke-miterlimit:4;stroke-dasharray:none;stroke-dashoffset:0;stroke-opacity:1;paint-order:fill markers stroke;filter:url(#filter4049);color-rendering:auto;image-rendering:auto;shape-rendering:auto;text-rendering:auto;enable-background:accumulate"
       d="m 134.76814,94.920426 c -1.00576,-0.02065 -1.49206,1.002006 -1.31895,1.870732 l 0.84195,4.225162 0.45566,6.46712 c 0.023,3.05189 -1.52318,-0.8461 -2.15567,-1.55864 -1.13326,-1.11728 -2.34757,-1.17979 -2.70979,-0.73728 -0.40467,0.49438 0.0374,1.87039 1.82608,3.97492 1.27151,2.12695 1.17099,3.9878 2.7137,5.54179 0.36569,0.36836 0.39667,0.94692 0.91796,0.9597 l 7.5001,0.18382 c 0.91253,-0.06 1.16851,-0.72485 1.52337,-1.56933 0.94903,-2.25846 2.09015,-7.21007 2.5883,-10.79858 0.11917,-0.85852 0.0906,-1.58545 -0.16783,-2.31456 -0.18303,-0.51642 -0.26242,-1.36252 -0.94001,-1.348352 -0.87465,0.0183 -0.61916,1.030712 -0.84806,3.216482 l -0.90162,2.06086 -0.67221,-0.0977 c 0,0 0.25069,-1.87118 0.46656,-4.06689 0.16694,-1.697892 -0.20881,-3.271869 -0.21553,-4.642727 -0.004,-0.869452 -0.79004,-1.256988 -1.24671,-1.266487 -0.55799,-0.01365 -1.01967,0.409805 -1.03091,0.949755 l -0.0959,4.606329 -0.49268,3.9272 -0.61587,-0.0151 0.20981,-4.16128 -0.2584,-4.907139 c -0.005,-0.746227 -0.48298,-1.6503 -1.32961,-1.618736 -0.60532,-0.01485 -1.51434,0.261801 -1.4368,1.629932 l 0.28489,5.026533 -0.17833,4.02179 -0.54425,-0.0134 -0.18387,-3.65537 -0.7522,-4.261314 c -0.0619,-0.666732 -0.22739,-1.609002 -1.23315,-1.629571 z"
       id="path4216"
       inkscape:connector-curvature="0"
       sodipodi:nodetypes="cscccsccscssascccsscsccccccsccccczc"
       inkscape:export-filename="/home/cassiano/projetos/workspace-visualcode/ctpuzzle-test-platform/assets/ct/hand_tutorial_drag.png"
       inkscape:export-xdpi="96.18"
       inkscape:export-ydpi="96.18" />
    <rect
       inkscape:export-ydpi="96.18"
       inkscape:export-xdpi="96.18"
       inkscape:export-filename="/home/cassiano/projetos/workspace-visualcode/ctpuzzle-test-platform/assets/ct/hand_tutorial_drag.png"
       ry="0"
       y="89.73317"
       x="148.68628"
       height="26.710297"
       width="20.336248"
       id="rect4218"
       style="color:#000000;clip-rule:nonzero;display:inline;overflow:visible;visibility:visible;opacity:1;isolation:auto;mix-blend-mode:normal;color-interpolation:sRGB;color-interpolation-filters:linearRGB;solid-color:#000000;solid-opacity:1;vector-effect:none;fill:#ffffff;fill-opacity:0.00392157;fill-rule:evenodd;stroke:#ffffff;stroke-width:0;stroke-linecap:round;stroke-linejoin:round;stroke-miterlimit:4;stroke-dasharray:none;stroke-dashoffset:0;stroke-opacity:0.95294118;paint-order:fill markers stroke;filter:url(#filter4049);color-rendering:auto;image-rendering:auto;shape-rendering:auto;text-rendering:auto;enable-background:accumulate" />
    <rect
       style="color:#000000;clip-rule:nonzero;display:inline;overflow:visible;visibility:visible;opacity:0.01000001;isolation:auto;mix-blend-mode:normal;color-interpolation:sRGB;color-interpolation-filters:linearRGB;solid-color:#000000;solid-opacity:1;vector-effect:none;fill:#ffffff;fill-opacity:0;fill-rule:evenodd;stroke:#ffffff;stroke-width:0;stroke-linecap:round;stroke-linejoin:round;stroke-miterlimit:4;stroke-dasharray:none;stroke-dashoffset:0;stroke-opacity:0.95294118;paint-order:fill markers stroke;filter:url(#filter4049);color-rendering:auto;image-rendering:auto;shape-rendering:auto;text-rendering:auto;enable-background:accumulate"
       id="rect4220"
       width="20.336248"
       height="26.710297"
       x="148.68628"
       y="89.73317"
       ry="0"
       inkscape:export-filename="/home/cassiano/projetos/workspace-visualcode/ctpuzzle-test-platform/assets/ct/hand_tutorial_drag.png"
       inkscape:export-xdpi="96.18"
       inkscape:export-ydpi="96.18" />
    <path
       inkscape:export-ydpi="96.18"
       inkscape:export-xdpi="96.18"
       inkscape:export-filename="/home/cassiano/projetos/workspace-visualcode/ctpuzzle-test-platform/assets/ct/hand_tutorial_drag.png"
       sodipodi:nodetypes="cscccsccscsszscccsscsccccccsccccczc"
       inkscape:connector-curvature="0"
       id="path4222"
       d="m 155.56429,94.652144 c -1.00575,-0.02065 -1.39399,0.988111 -1.31895,1.870732 l 0.38205,4.493444 0.45566,6.46712 c 0.023,3.05189 -2.02143,-0.6928 -2.65391,-1.40533 -1.13327,-1.11728 -2.19428,-1.1798 -2.55649,-0.73728 -0.40466,0.49437 0.0375,1.87038 1.82608,3.97491 1.2715,2.12695 1.51592,3.8345 3.05864,5.38849 0.36569,0.36836 0.39666,0.94692 0.91796,0.9597 l 7.5001,0.18382 c 0.91252,-0.06 1.1685,-0.72485 1.52336,-1.56933 0.94903,-2.25846 2.09016,-7.21007 2.5883,-10.79858 0.11918,-0.85852 0.28485,-1.7658 0.29208,-2.58284 0.007,-0.81705 -0.26242,-1.362522 -0.94001,-1.348354 -0.87464,0.0183 -0.80807,1.298994 -1.30797,3.484764 l -0.90161,2.06086 -0.67221,-0.0977 c 0,0 0.25068,-1.87118 0.46656,-4.06689 0.16693,-1.697892 0.2511,-3.540151 0.24438,-4.911009 -0.004,-0.869452 -0.79004,-1.256988 -1.24672,-1.266487 -0.55799,-0.01365 -0.96972,0.413165 -1.03091,0.949755 l -0.55582,4.874611 -0.49269,3.9272 -0.61587,-0.0151 0.20982,-4.16128 0.20151,-5.175421 c -0.005,-0.746227 -0.48299,-1.650301 -1.32962,-1.618735 -0.60531,-0.01485 -1.39151,0.260353 -1.43678,1.629932 l -0.17504,5.294814 -0.17832,4.02179 -0.54426,-0.0134 -0.18386,-3.65537 -0.29228,-4.529596 c -0.0619,-0.666733 -0.22741,-1.609002 -1.23317,-1.629572 z"
       style="color:#000000;clip-rule:nonzero;display:inline;overflow:visible;visibility:visible;opacity:1;isolation:auto;mix-blend-mode:normal;color-interpolation:sRGB;color-interpolation-filters:linearRGB;solid-color:#000000;solid-opacity:1;vector-effect:none;fill:#008000;fill-opacity:1;fill-rule:evenodd;stroke:#000000;stroke-width:0.28679633;stroke-linecap:round;stroke-linejoin:round;stroke-miterlimit:4;stroke-dasharray:none;stroke-dashoffset:0;stroke-opacity:1;paint-order:fill markers stroke;filter:url(#filter4049);color-rendering:auto;image-rendering:auto;shape-rendering:auto;text-rendering:auto;enable-background:accumulate" />
  </g>
</svg>
