<?xml version="1.0" encoding="UTF-8" standalone="no"?>
<!-- Created with Inkscape (http://www.inkscape.org/) -->

<svg
   xmlns:dc="http://purl.org/dc/elements/1.1/"
   xmlns:cc="http://creativecommons.org/ns#"
   xmlns:rdf="http://www.w3.org/1999/02/22-rdf-syntax-ns#"
   xmlns:svg="http://www.w3.org/2000/svg"
   xmlns="http://www.w3.org/2000/svg"
   xmlns:sodipodi="http://sodipodi.sourceforge.net/DTD/sodipodi-0.dtd"
   xmlns:inkscape="http://www.inkscape.org/namespaces/inkscape"
   width="210mm"
   height="297mm"
   viewBox="0 0 210 297"
   version="1.1"
   id="svg3531"
   inkscape:version="0.92.5 (2060ec1f9f, 2020-04-08)"
   sodipodi:docname="hand_drag.svg">
  <defs
     id="defs3525" />
  <sodipodi:namedview
     id="base"
     pagecolor="#ffffff"
     bordercolor="#666666"
     borderopacity="1.0"
     inkscape:pageopacity="0.0"
     inkscape:pageshadow="2"
     inkscape:zoom="0.7"
     inkscape:cx="289.74843"
     inkscape:cy="718.67412"
     inkscape:document-units="mm"
     inkscape:current-layer="layer1"
     showgrid="false"
     inkscape:window-width="1920"
     inkscape:window-height="1017"
     inkscape:window-x="0"
     inkscape:window-y="0"
     inkscape:window-maximized="1" />
  <metadata
     id="metadata3528">
    <rdf:RDF>
      <cc:Work
         rdf:about="">
        <dc:format>image/svg+xml</dc:format>
        <dc:type
           rdf:resource="http://purl.org/dc/dcmitype/StillImage" />
        <dc:title></dc:title>
      </cc:Work>
    </rdf:RDF>
  </metadata>
  <g
     inkscape:label="Layer 1"
     inkscape:groupmode="layer"
     id="layer1">
    <rect
       style="color:#000000;clip-rule:nonzero;display:inline;overflow:visible;visibility:visible;opacity:1;isolation:auto;mix-blend-mode:normal;color-interpolation:sRGB;color-interpolation-filters:linearRGB;solid-color:#000000;solid-opacity:1;vector-effect:none;fill:#00ffff;fill-opacity:0.00392157;fill-rule:evenodd;stroke:#ffffff;stroke-width:0;stroke-linecap:round;stroke-linejoin:round;stroke-miterlimit:4;stroke-dasharray:none;stroke-dashoffset:0;stroke-opacity:0.95294118;paint-order:fill markers stroke;filter:url(#filter4049);color-rendering:auto;image-rendering:auto;shape-rendering:auto;text-rendering:auto;enable-background:accumulate"
       id="rect3483"
       width="35.454166"
       height="46.566666"
       x="26.668798"
       y="69.876801"
       ry="0"
       inkscape:export-filename="/home/cassiano/projetos/workspace-visualcode/ctpuzzle-test-platform/assets/ct/hand_tutorial_drag.png"
       inkscape:export-xdpi="96.18"
       inkscape:export-ydpi="96.18" />
    <rect
       inkscape:export-ydpi="96.18"
       inkscape:export-xdpi="96.18"
       inkscape:export-filename="/home/cassiano/projetos/workspace-visualcode/ctpuzzle-test-platform/assets/ct/hand_tutorial_drag.png"
       ry="0"
       y="69.876801"
       x="26.668798"
       height="46.566666"
       width="35.454166"
       id="rect3438"
       style="color:#000000;clip-rule:nonzero;display:inline;overflow:visible;visibility:visible;opacity:0.01;isolation:auto;mix-blend-mode:normal;color-interpolation:sRGB;color-interpolation-filters:linearRGB;solid-color:#000000;solid-opacity:1;vector-effect:none;fill:#ffffff;fill-opacity:0;fill-rule:evenodd;stroke:#ffffff;stroke-width:0;stroke-linecap:round;stroke-linejoin:round;stroke-miterlimit:4;stroke-dasharray:none;stroke-dashoffset:0;stroke-opacity:0.95294118;paint-order:fill markers stroke;filter:url(#filter4049);color-rendering:auto;image-rendering:auto;shape-rendering:auto;text-rendering:auto;enable-background:accumulate" />
    <path
       style="color:#000000;clip-rule:nonzero;display:inline;overflow:visible;visibility:visible;opacity:1;isolation:auto;mix-blend-mode:normal;color-interpolation:sRGB;color-interpolation-filters:linearRGB;solid-color:#000000;solid-opacity:1;vector-effect:none;fill:#ffffff;fill-opacity:1;fill-rule:evenodd;stroke:#000000;stroke-width:0.5;stroke-linecap:round;stroke-linejoin:round;stroke-miterlimit:4;stroke-dasharray:none;stroke-dashoffset:0;stroke-opacity:0.95294118;paint-order:fill markers stroke;filter:url(#filter4049);color-rendering:auto;image-rendering:auto;shape-rendering:auto;text-rendering:auto;enable-background:accumulate"
       d="m 39.037906,78.452527 c -1.753434,-0.036 -2.430288,1.72267 -2.299459,3.26143 l 0.666052,7.83386 0.7944,11.274763 c 0.04011,5.32066 -3.524151,-1.207834 -4.626824,-2.450053 -1.975728,-1.94787 -3.825484,-2.05686 -4.456965,-1.28538 -0.705498,0.861891 0.0653,3.260823 3.183578,6.929863 2.216738,3.70812 2.642863,6.68506 5.332422,9.39428 0.63755,0.6422 0.691545,1.65085 1.60037,1.67313 l 13.075655,0.32048 c 1.59089,-0.10458 2.03717,-1.26372 2.65583,-2.73597 1.65453,-3.9374 3.64397,-12.57002 4.51243,-18.826223 0.20777,-1.49674 0.49662,-3.07849 0.50922,-4.50292 0.0126,-1.42443 -0.45751,-2.37541 -1.63881,-2.35071 -1.52485,0.0319 -1.40879,2.26466 -2.28031,6.07533 l -1.57187,3.592901 -1.17194,-0.170342 c 0,0 0.43705,-3.262199 0.81341,-7.090189 0.29102,-2.96011 0.43776,-6.1719 0.42604,-8.56185 -0.007,-1.5158 -1.37735,-2.19143 -2.17351,-2.20799 -0.97281,-0.0238 -1.69062,0.72031 -1.79729,1.6558 l -0.969028,8.49838 -0.858936,6.84667 -1.073715,-0.0263 0.365788,-7.25477 0.351312,-9.02281 c -0.0088,-1.30097 -0.842033,-2.87713 -2.318044,-2.8221 -1.055299,-0.0259 -2.425967,0.4539 -2.504897,2.84162 l -0.305146,9.23096 -0.310887,7.01158 -0.948857,-0.0233 -0.320553,-6.37276 -0.509564,-7.89689 c -0.108005,-1.16238 -0.396452,-2.80513 -2.14989,-2.840991 z"
       id="path3485"
       inkscape:connector-curvature="0"
       sodipodi:nodetypes="cscccsccscsszscccsscsccccccsccccczc"
       inkscape:export-filename="/home/cassiano/projetos/workspace-visualcode/ctpuzzle-test-platform/assets/ct/hand_tutorial_drag.png"
       inkscape:export-xdpi="96.18"
       inkscape:export-ydpi="96.18" />
    <rect
       inkscape:export-ydpi="96.18"
       inkscape:export-xdpi="96.18"
       inkscape:export-filename="/home/cassiano/projetos/workspace-visualcode/ctpuzzle-test-platform/assets/ct/hand_tutorial_drag.png"
       ry="0"
       y="69.876801"
       x="62.122963"
       height="46.566666"
       width="35.454166"
       id="rect3519"
       style="color:#000000;clip-rule:nonzero;display:inline;overflow:visible;visibility:visible;opacity:1;isolation:auto;mix-blend-mode:normal;color-interpolation:sRGB;color-interpolation-filters:linearRGB;solid-color:#000000;solid-opacity:1;vector-effect:none;fill:#00ffff;fill-opacity:0.00392157;fill-rule:evenodd;stroke:#ffffff;stroke-width:0;stroke-linecap:round;stroke-linejoin:round;stroke-miterlimit:4;stroke-dasharray:none;stroke-dashoffset:0;stroke-opacity:0.95294118;paint-order:fill markers stroke;filter:url(#filter4049);color-rendering:auto;image-rendering:auto;shape-rendering:auto;text-rendering:auto;enable-background:accumulate" />
    <rect
       style="color:#000000;clip-rule:nonzero;display:inline;overflow:visible;visibility:visible;opacity:0.01;isolation:auto;mix-blend-mode:normal;color-interpolation:sRGB;color-interpolation-filters:linearRGB;solid-color:#000000;solid-opacity:1;vector-effect:none;fill:#ffffff;fill-opacity:0;fill-rule:evenodd;stroke:#ffffff;stroke-width:0;stroke-linecap:round;stroke-linejoin:round;stroke-miterlimit:4;stroke-dasharray:none;stroke-dashoffset:0;stroke-opacity:0.95294118;paint-order:fill markers stroke;filter:url(#filter4049);color-rendering:auto;image-rendering:auto;shape-rendering:auto;text-rendering:auto;enable-background:accumulate"
       id="rect3521"
       width="35.454166"
       height="46.566666"
       x="62.122963"
       y="69.876801"
       ry="0"
       inkscape:export-filename="/home/cassiano/projetos/workspace-visualcode/ctpuzzle-test-platform/assets/ct/hand_tutorial_drag.png"
       inkscape:export-xdpi="96.18"
       inkscape:export-ydpi="96.18" />
    <path
       inkscape:export-ydpi="96.18"
       inkscape:export-xdpi="96.18"
       inkscape:export-filename="/home/cassiano/projetos/workspace-visualcode/ctpuzzle-test-platform/assets/ct/hand_tutorial_drag.png"
       sodipodi:nodetypes="cscccsccscssascccsscsccccccsccccczc"
       inkscape:connector-curvature="0"
       id="path3523"
       d="m 73.690265,78.920249 c -1.75344,-0.036 -2.60126,1.746895 -2.29946,3.26143 l 1.46786,7.366138 0.7944,11.274763 c 0.0401,5.32066 -2.65552,-1.475104 -3.75819,-2.717323 -1.97573,-1.94787 -4.09276,-2.05686 -4.72424,-1.28538 -0.7055,0.861891 0.0653,3.260823 3.18358,6.929863 2.21674,3.70812 2.0415,6.95233 4.73106,9.66155 0.63755,0.6422 0.69155,1.65085 1.60037,1.67313 l 13.07566,0.32048 c 1.59089,-0.10458 2.03717,-1.26372 2.65583,-2.73597 1.65453,-3.9374 3.64397,-12.57002 4.51243,-18.826223 0.20777,-1.49674 0.15791,-2.764071 -0.29259,-4.035198 -0.31908,-0.900321 -0.45751,-2.37541 -1.63881,-2.35071 -1.52486,0.0319 -1.07945,1.796938 -1.47851,5.607608 l -1.57187,3.592901 -1.17193,-0.170342 c 0,0 0.43705,-3.262199 0.8134,-7.090189 0.29103,-2.96011 -0.36404,-5.704178 -0.37576,-8.094128 -0.007,-1.5158 -1.37735,-2.19143 -2.17351,-2.20799 -0.97281,-0.0238 -1.77769,0.714452 -1.79729,1.6558 l -0.16722,8.030658 -0.85894,6.84667 -1.07371,-0.0263 0.36579,-7.25477 -0.4505,-8.555088 c -0.009,-1.30097 -0.84203,-2.87713 -2.31804,-2.8221 -1.05531,-0.0259 -2.64008,0.456423 -2.5049,2.84162 l 0.49666,8.763238 -0.31089,7.01158 -0.94885,-0.0233 -0.32056,-6.37276 -1.31137,-7.429168 c -0.108,-1.162379 -0.39645,-2.805129 -2.14989,-2.840989 z"
       style="color:#000000;clip-rule:nonzero;display:inline;overflow:visible;visibility:visible;opacity:1;isolation:auto;mix-blend-mode:normal;color-interpolation:sRGB;color-interpolation-filters:linearRGB;solid-color:#000000;solid-opacity:1;vector-effect:none;fill:#ffffff;fill-opacity:1;fill-rule:evenodd;stroke:#000000;stroke-width:0.5;stroke-linecap:round;stroke-linejoin:round;stroke-miterlimit:4;stroke-dasharray:none;stroke-dashoffset:0;stroke-opacity:0.95294118;paint-order:fill markers stroke;filter:url(#filter4049);color-rendering:auto;image-rendering:auto;shape-rendering:auto;text-rendering:auto;enable-background:accumulate" />
    <rect
       style="color:#000000;clip-rule:nonzero;display:inline;overflow:visible;visibility:visible;opacity:1;isolation:auto;mix-blend-mode:normal;color-interpolation:sRGB;color-interpolation-filters:linearRGB;solid-color:#000000;solid-opacity:1;vector-effect:none;fill:#00ffff;fill-opacity:0.00392157;fill-rule:evenodd;stroke:#ffffff;stroke-width:0;stroke-linecap:round;stroke-linejoin:round;stroke-miterlimit:4;stroke-dasharray:none;stroke-dashoffset:0;stroke-opacity:0.95294118;paint-order:fill markers stroke;filter:url(#filter4049);color-rendering:auto;image-rendering:auto;shape-rendering:auto;text-rendering:auto;enable-background:accumulate"
       id="rect4118"
       width="35.454166"
       height="46.566666"
       x="97.577126"
       y="69.876801"
       ry="0"
       inkscape:export-filename="/home/cassiano/projetos/workspace-visualcode/ctpuzzle-test-platform/assets/ct/hand_tutorial_drag.png"
       inkscape:export-xdpi="96.18"
       inkscape:export-ydpi="96.18" />
    <rect
       inkscape:export-ydpi="96.18"
       inkscape:export-xdpi="96.18"
       inkscape:export-filename="/home/cassiano/projetos/workspace-visualcode/ctpuzzle-test-platform/assets/ct/hand_tutorial_drag.png"
       ry="0"
       y="69.876801"
       x="97.577126"
       height="46.566666"
       width="35.454166"
       id="rect4120"
       style="color:#000000;clip-rule:nonzero;display:inline;overflow:visible;visibility:visible;opacity:0.01;isolation:auto;mix-blend-mode:normal;color-interpolation:sRGB;color-interpolation-filters:linearRGB;solid-color:#000000;solid-opacity:1;vector-effect:none;fill:#ffffff;fill-opacity:0;fill-rule:evenodd;stroke:#ffffff;stroke-width:0;stroke-linecap:round;stroke-linejoin:round;stroke-miterlimit:4;stroke-dasharray:none;stroke-dashoffset:0;stroke-opacity:0.95294118;paint-order:fill markers stroke;filter:url(#filter4049);color-rendering:auto;image-rendering:auto;shape-rendering:auto;text-rendering:auto;enable-background:accumulate" />
    <path
       style="color:#000000;clip-rule:nonzero;display:inline;overflow:visible;visibility:visible;opacity:1;isolation:auto;mix-blend-mode:normal;color-interpolation:sRGB;color-interpolation-filters:linearRGB;solid-color:#000000;solid-opacity:1;vector-effect:none;fill:#ffffff;fill-opacity:1;fill-rule:evenodd;stroke:#000000;stroke-width:0.5;stroke-linecap:round;stroke-linejoin:round;stroke-miterlimit:4;stroke-dasharray:none;stroke-dashoffset:0;stroke-opacity:0.95294118;paint-order:fill markers stroke;filter:url(#filter4049);color-rendering:auto;image-rendering:auto;shape-rendering:auto;text-rendering:auto;enable-background:accumulate"
       d="m 108.61526,79.449416 c -1.75344,-0.036 -2.73245,1.77906 -2.29946,3.26143 l 1.99703,6.836971 0.7944,11.274763 c 0.0401,5.32066 -2.32143,-1.341469 -3.4241,-2.583688 -1.97573,-1.94787 -3.62504,-2.123677 -4.25652,-1.352197 -0.7055,0.861891 -0.46924,3.461275 2.64904,7.130315 2.21674,3.70812 1.77423,6.68506 4.46379,9.39428 0.63755,0.6422 0.69155,1.65085 1.60037,1.67313 l 13.07566,0.32048 c 1.59089,-0.10458 2.03717,-1.26372 2.65583,-2.73597 1.65453,-3.9374 3.64397,-11.44487 4.51243,-17.701072 0.20777,-1.49674 -0.27673,-3.574523 -0.62131,-4.798225 -0.26508,-0.94137 -0.65796,-2.208367 -1.83926,-2.183667 -1.52486,0.0319 -0.44271,3.432511 -0.94934,5.078441 -0.38457,1.249385 -1.57187,3.592901 -1.57187,3.592901 l -1.17193,-0.170342 c 0,0 0.43705,-3.262199 0.8134,-7.090189 0.29103,-2.96011 -0.89321,-5.175011 -0.90493,-7.564961 -0.007,-1.5158 -1.37735,-2.19143 -2.17351,-2.20799 -0.97281,-0.0238 -1.84266,0.715342 -1.79729,1.6558 l 0.36195,7.501491 -0.85894,6.84667 -1.07371,-0.0263 0.36579,-7.25477 -0.97967,-8.025921 c -0.009,-1.30097 -0.84203,-2.87713 -2.31804,-2.8221 -1.05531,-0.0259 -2.80025,0.470922 -2.5049,2.84162 l 1.02583,8.234071 -0.31089,7.01158 -0.94885,-0.0233 -0.32056,-6.37276 -1.84054,-6.900001 c -0.108,-1.162379 -0.39645,-2.805129 -2.14989,-2.840989 z"
       id="path4122"
       inkscape:connector-curvature="0"
       sodipodi:nodetypes="cscccsccscsssssccsscsccccccsccccczc"
       inkscape:export-filename="/home/cassiano/projetos/workspace-visualcode/ctpuzzle-test-platform/assets/ct/hand_tutorial_drag.png"
       inkscape:export-xdpi="96.18"
       inkscape:export-ydpi="96.18" />
    <rect
       inkscape:export-ydpi="96.18"
       inkscape:export-xdpi="96.18"
       inkscape:export-filename="/home/cassiano/projetos/workspace-visualcode/ctpuzzle-test-platform/assets/ct/hand_tutorial_drag.png"
       ry="0"
       y="69.876801"
       x="133.03128"
       height="46.566666"
       width="35.454166"
       id="rect4124"
       style="color:#000000;clip-rule:nonzero;display:inline;overflow:visible;visibility:visible;opacity:1;isolation:auto;mix-blend-mode:normal;color-interpolation:sRGB;color-interpolation-filters:linearRGB;solid-color:#000000;solid-opacity:1;vector-effect:none;fill:#00ffff;fill-opacity:0.00392157;fill-rule:evenodd;stroke:#ffffff;stroke-width:0;stroke-linecap:round;stroke-linejoin:round;stroke-miterlimit:4;stroke-dasharray:none;stroke-dashoffset:0;stroke-opacity:0.95294118;paint-order:fill markers stroke;filter:url(#filter4049);color-rendering:auto;image-rendering:auto;shape-rendering:auto;text-rendering:auto;enable-background:accumulate" />
    <rect
       style="color:#000000;clip-rule:nonzero;display:inline;overflow:visible;visibility:visible;opacity:0.01;isolation:auto;mix-blend-mode:normal;color-interpolation:sRGB;color-interpolation-filters:linearRGB;solid-color:#000000;solid-opacity:1;vector-effect:none;fill:#ffffff;fill-opacity:0;fill-rule:evenodd;stroke:#ffffff;stroke-width:0;stroke-linecap:round;stroke-linejoin:round;stroke-miterlimit:4;stroke-dasharray:none;stroke-dashoffset:0;stroke-opacity:0.95294118;paint-order:fill markers stroke;filter:url(#filter4049);color-rendering:auto;image-rendering:auto;shape-rendering:auto;text-rendering:auto;enable-background:accumulate"
       id="rect4126"
       width="35.454166"
       height="46.566666"
       x="133.03128"
       y="69.876801"
       ry="0"
       inkscape:export-filename="/home/cassiano/projetos/workspace-visualcode/ctpuzzle-test-platform/assets/ct/hand_tutorial_drag.png"
       inkscape:export-xdpi="96.18"
       inkscape:export-ydpi="96.18" />
    <path
       inkscape:export-ydpi="96.18"
       inkscape:export-xdpi="96.18"
       inkscape:export-filename="/home/cassiano/projetos/workspace-visualcode/ctpuzzle-test-platform/assets/ct/hand_tutorial_drag.png"
       sodipodi:nodetypes="ccccsccscsssssccsscsccccccscccccc"
       inkscape:connector-curvature="0"
       id="path4128"
       d="m 141.8172,88.231098 1.17091,3.676288 1.1953,8.915194 c 0.0401,5.32066 -1.82326,-0.78261 -2.92593,-2.02483 -1.97573,-1.94787 -3.82549,-2.05686 -4.45697,-1.28538 -0.7055,0.861891 -0.50166,2.97734 2.00241,6.69363 2.21674,3.70812 2.12314,6.49607 4.8127,9.20529 0.63755,0.6422 0.69155,1.65085 1.60037,1.67313 l 13.07566,0.32048 c 1.59089,-0.10458 2.03717,-1.26372 2.65583,-2.73597 1.65453,-3.9374 3.24307,-9.84125 4.11153,-16.097455 0.20777,-1.49674 -0.27673,-2.818571 -0.62131,-4.042273 -0.26508,-0.94137 -0.47086,-2.285347 -1.83926,-2.183667 -1.71208,0.127217 -0.3516,2.707415 -0.94934,4.322489 -0.28163,0.760947 -1.21822,2.107402 -1.21822,2.107402 l -1.12468,-0.28846 c 0,0 0.3443,-0.884774 0.4125,-4.73062 0.0238,-1.339788 -0.0246,-2.842135 -0.50403,-4.664137 -0.38574,-1.465914 -1.37735,-2.19143 -2.17351,-2.20799 -0.97281,-0.0238 -1.78933,0.714283 -1.79729,1.6558 l -0.0389,4.600667 -0.45804,4.487101 -1.07371,-0.0263 -0.0351,-4.895201 -0.57877,-5.125097 c -0.009,-1.30097 -1.00739,-2.853506 -2.4834,-2.798476 -1.05531,-0.0259 -2.61206,0.967113 -2.31592,3.337713 l 0.60131,4.81353 0.09,4.652011 -0.94885,-0.0233 -0.72146,-4.013191 -1.43964,-3.999177 c -0.77376,-3.469148 -5.06346,-2.514691 -4.02419,0.680799 z"
       style="color:#000000;clip-rule:nonzero;display:inline;overflow:visible;visibility:visible;opacity:1;isolation:auto;mix-blend-mode:normal;color-interpolation:sRGB;color-interpolation-filters:linearRGB;solid-color:#000000;solid-opacity:1;vector-effect:none;fill:#ffffff;fill-opacity:1;fill-rule:evenodd;stroke:#000000;stroke-width:0.5;stroke-linecap:round;stroke-linejoin:round;stroke-miterlimit:4;stroke-dasharray:none;stroke-dashoffset:0;stroke-opacity:0.95294118;paint-order:fill markers stroke;filter:url(#filter4049);color-rendering:auto;image-rendering:auto;shape-rendering:auto;text-rendering:auto;enable-background:accumulate" />
    <rect
       inkscape:export-ydpi="96.18"
       inkscape:export-xdpi="96.18"
       inkscape:export-filename="/home/cassiano/projetos/workspace-visualcode/ctpuzzle-test-platform/assets/ct/hand_tutorial_drag.png"
       ry="0"
       y="69.876801"
       x="168.48544"
       height="46.566666"
       width="35.454166"
       id="rect4206"
       style="color:#000000;clip-rule:nonzero;display:inline;overflow:visible;visibility:visible;opacity:1;isolation:auto;mix-blend-mode:normal;color-interpolation:sRGB;color-interpolation-filters:linearRGB;solid-color:#000000;solid-opacity:1;vector-effect:none;fill:#00ffff;fill-opacity:0.00392157;fill-rule:evenodd;stroke:#ffffff;stroke-width:0;stroke-linecap:round;stroke-linejoin:round;stroke-miterlimit:4;stroke-dasharray:none;stroke-dashoffset:0;stroke-opacity:0.95294118;paint-order:fill markers stroke;filter:url(#filter4049);color-rendering:auto;image-rendering:auto;shape-rendering:auto;text-rendering:auto;enable-background:accumulate" />
    <rect
       style="color:#000000;clip-rule:nonzero;display:inline;overflow:visible;visibility:visible;opacity:0.01000001;isolation:auto;mix-blend-mode:normal;color-interpolation:sRGB;color-interpolation-filters:linearRGB;solid-color:#000000;solid-opacity:1;vector-effect:none;fill:#ffffff;fill-opacity:0;fill-rule:evenodd;stroke:#ffffff;stroke-width:0;stroke-linecap:round;stroke-linejoin:round;stroke-miterlimit:4;stroke-dasharray:none;stroke-dashoffset:0;stroke-opacity:0.95294118;paint-order:fill markers stroke;filter:url(#filter4049);color-rendering:auto;image-rendering:auto;shape-rendering:auto;text-rendering:auto;enable-background:accumulate"
       id="rect4208"
       width="35.454166"
       height="46.566666"
       x="168.48544"
       y="69.876801"
       ry="0"
       inkscape:export-filename="/home/cassiano/projetos/workspace-visualcode/ctpuzzle-test-platform/assets/ct/hand_tutorial_drag.png"
       inkscape:export-xdpi="96.18"
       inkscape:export-ydpi="96.18" />
    <path
       inkscape:export-ydpi="96.18"
       inkscape:export-xdpi="96.18"
       inkscape:export-filename="/home/cassiano/projetos/workspace-visualcode/ctpuzzle-test-platform/assets/ct/hand_tutorial_drag.png"
       sodipodi:nodetypes="cscccsccscsssssccsscsccccccsccccczc"
       inkscape:connector-curvature="0"
       id="path4210"
       d="m 179.1456,79.449416 c -1.75344,-0.036 -2.73245,1.77906 -2.29946,3.26143 l 1.99703,6.836971 0.7944,11.274763 c 0.0401,5.32066 -2.32143,-1.341469 -3.4241,-2.583688 -1.97573,-1.94787 -3.62504,-2.123677 -4.25652,-1.352197 -0.7055,0.861891 -0.46924,3.461275 2.64904,7.130315 2.21674,3.70812 1.77423,6.68506 4.46379,9.39428 0.63755,0.6422 0.69155,1.65085 1.60037,1.67313 l 13.07566,0.32048 c 1.59089,-0.10458 2.03717,-1.26372 2.65583,-2.73597 1.65453,-3.9374 3.64397,-11.44487 4.51243,-17.701072 0.20777,-1.49674 -0.27673,-3.574523 -0.62131,-4.798225 -0.26508,-0.94137 -0.65796,-2.208367 -1.83926,-2.183667 -1.52486,0.0319 -0.44271,3.432511 -0.94934,5.078441 -0.38457,1.249385 -1.57187,3.592901 -1.57187,3.592901 l -1.17193,-0.170342 c 0,0 0.43705,-3.262199 0.8134,-7.090189 0.29103,-2.96011 -0.89321,-5.175011 -0.90493,-7.564961 -0.007,-1.5158 -1.37735,-2.19143 -2.17351,-2.20799 -0.97281,-0.0238 -1.84266,0.715342 -1.79729,1.6558 l 0.36195,7.501491 -0.85894,6.84667 -1.07371,-0.0263 0.36579,-7.25477 -0.97967,-8.025921 c -0.009,-1.30097 -0.84203,-2.87713 -2.31804,-2.8221 -1.05531,-0.0259 -2.80025,0.470922 -2.5049,2.84162 l 1.02583,8.234071 -0.31089,7.01158 -0.94885,-0.0233 -0.32056,-6.37276 -1.84054,-6.900001 c -0.108,-1.162379 -0.39645,-2.805129 -2.14989,-2.840989 z"
       style="color:#000000;clip-rule:nonzero;display:inline;overflow:visible;visibility:visible;opacity:1;isolation:auto;mix-blend-mode:normal;color-interpolation:sRGB;color-interpolation-filters:linearRGB;solid-color:#000000;solid-opacity:1;vector-effect:none;fill:#ffffff;fill-opacity:1;fill-rule:evenodd;stroke:#000000;stroke-width:0.5;stroke-linecap:round;stroke-linejoin:round;stroke-miterlimit:4;stroke-dasharray:none;stroke-dashoffset:0;stroke-opacity:0.95294118;paint-order:fill markers stroke;filter:url(#filter4049);color-rendering:auto;image-rendering:auto;shape-rendering:auto;text-rendering:auto;enable-background:accumulate" />
    <rect
       style="color:#000000;clip-rule:nonzero;display:inline;overflow:visible;visibility:visible;opacity:1;isolation:auto;mix-blend-mode:normal;color-interpolation:sRGB;color-interpolation-filters:linearRGB;solid-color:#000000;solid-opacity:1;vector-effect:none;fill:#00ffff;fill-opacity:0.00392157;fill-rule:evenodd;stroke:#ffffff;stroke-width:0;stroke-linecap:round;stroke-linejoin:round;stroke-miterlimit:4;stroke-dasharray:none;stroke-dashoffset:0;stroke-opacity:0.95294118;paint-order:fill markers stroke;filter:url(#filter4049);color-rendering:auto;image-rendering:auto;shape-rendering:auto;text-rendering:auto;enable-background:accumulate"
       id="rect4212"
       width="35.454166"
       height="46.566666"
       x="203.93961"
       y="69.876801"
       ry="0"
       inkscape:export-filename="/home/cassiano/projetos/workspace-visualcode/ctpuzzle-test-platform/assets/ct/hand_tutorial_drag.png"
       inkscape:export-xdpi="96.18"
       inkscape:export-ydpi="96.18" />
    <rect
       inkscape:export-ydpi="96.18"
       inkscape:export-xdpi="96.18"
       inkscape:export-filename="/home/cassiano/projetos/workspace-visualcode/ctpuzzle-test-platform/assets/ct/hand_tutorial_drag.png"
       ry="0"
       y="69.876801"
       x="203.93961"
       height="46.566666"
       width="35.454166"
       id="rect4214"
       style="color:#000000;clip-rule:nonzero;display:inline;overflow:visible;visibility:visible;opacity:0.01000001;isolation:auto;mix-blend-mode:normal;color-interpolation:sRGB;color-interpolation-filters:linearRGB;solid-color:#000000;solid-opacity:1;vector-effect:none;fill:#ffffff;fill-opacity:0;fill-rule:evenodd;stroke:#ffffff;stroke-width:0;stroke-linecap:round;stroke-linejoin:round;stroke-miterlimit:4;stroke-dasharray:none;stroke-dashoffset:0;stroke-opacity:0.95294118;paint-order:fill markers stroke;filter:url(#filter4049);color-rendering:auto;image-rendering:auto;shape-rendering:auto;text-rendering:auto;enable-background:accumulate" />
    <path
       style="color:#000000;clip-rule:nonzero;display:inline;overflow:visible;visibility:visible;opacity:1;isolation:auto;mix-blend-mode:normal;color-interpolation:sRGB;color-interpolation-filters:linearRGB;solid-color:#000000;solid-opacity:1;vector-effect:none;fill:#ffffff;fill-opacity:1;fill-rule:evenodd;stroke:#000000;stroke-width:0.5;stroke-linecap:round;stroke-linejoin:round;stroke-miterlimit:4;stroke-dasharray:none;stroke-dashoffset:0;stroke-opacity:0.95294118;paint-order:fill markers stroke;filter:url(#filter4049);color-rendering:auto;image-rendering:auto;shape-rendering:auto;text-rendering:auto;enable-background:accumulate"
       d="m 215.12893,78.920249 c -1.75344,-0.036 -2.60126,1.746895 -2.29946,3.26143 l 1.46786,7.366138 0.7944,11.274763 c 0.0401,5.32066 -2.65552,-1.475104 -3.75819,-2.717323 -1.97573,-1.94787 -4.09276,-2.05686 -4.72424,-1.28538 -0.7055,0.861891 0.0653,3.260823 3.18358,6.929863 2.21674,3.70812 2.0415,6.95233 4.73106,9.66155 0.63755,0.6422 0.69155,1.65085 1.60037,1.67313 l 13.07566,0.32048 c 1.59089,-0.10458 2.03717,-1.26372 2.65583,-2.73597 1.65453,-3.9374 3.64397,-12.57002 4.51243,-18.826223 0.20777,-1.49674 0.15791,-2.764071 -0.29259,-4.035198 -0.31908,-0.900321 -0.45751,-2.37541 -1.63881,-2.35071 -1.52486,0.0319 -1.07945,1.796938 -1.47851,5.607608 l -1.57187,3.592901 -1.17193,-0.170342 c 0,0 0.43705,-3.262199 0.8134,-7.090189 0.29103,-2.96011 -0.36404,-5.704178 -0.37576,-8.094128 -0.007,-1.5158 -1.37735,-2.19143 -2.17351,-2.20799 -0.97281,-0.0238 -1.77769,0.714452 -1.79729,1.6558 l -0.16722,8.030658 -0.85894,6.84667 -1.07371,-0.0263 0.36579,-7.25477 -0.4505,-8.555088 c -0.009,-1.30097 -0.84203,-2.87713 -2.31804,-2.8221 -1.05531,-0.0259 -2.64008,0.456423 -2.5049,2.84162 l 0.49666,8.763238 -0.31089,7.01158 -0.94885,-0.0233 -0.32056,-6.37276 -1.31137,-7.429168 c -0.108,-1.162379 -0.39645,-2.805129 -2.14989,-2.840989 z"
       id="path4216"
       inkscape:connector-curvature="0"
       sodipodi:nodetypes="cscccsccscssascccsscsccccccsccccczc"
       inkscape:export-filename="/home/cassiano/projetos/workspace-visualcode/ctpuzzle-test-platform/assets/ct/hand_tutorial_drag.png"
       inkscape:export-xdpi="96.18"
       inkscape:export-ydpi="96.18" />
    <rect
       inkscape:export-ydpi="96.18"
       inkscape:export-xdpi="96.18"
       inkscape:export-filename="/home/cassiano/projetos/workspace-visualcode/ctpuzzle-test-platform/assets/ct/hand_tutorial_drag.png"
       ry="0"
       y="69.876801"
       x="239.39377"
       height="46.566666"
       width="35.454166"
       id="rect4218"
       style="color:#000000;clip-rule:nonzero;display:inline;overflow:visible;visibility:visible;opacity:1;isolation:auto;mix-blend-mode:normal;color-interpolation:sRGB;color-interpolation-filters:linearRGB;solid-color:#000000;solid-opacity:1;vector-effect:none;fill:#00ffff;fill-opacity:0.00392157;fill-rule:evenodd;stroke:#ffffff;stroke-width:0;stroke-linecap:round;stroke-linejoin:round;stroke-miterlimit:4;stroke-dasharray:none;stroke-dashoffset:0;stroke-opacity:0.95294118;paint-order:fill markers stroke;filter:url(#filter4049);color-rendering:auto;image-rendering:auto;shape-rendering:auto;text-rendering:auto;enable-background:accumulate" />
    <rect
       style="color:#000000;clip-rule:nonzero;display:inline;overflow:visible;visibility:visible;opacity:0.01000001;isolation:auto;mix-blend-mode:normal;color-interpolation:sRGB;color-interpolation-filters:linearRGB;solid-color:#000000;solid-opacity:1;vector-effect:none;fill:#ffffff;fill-opacity:0;fill-rule:evenodd;stroke:#ffffff;stroke-width:0;stroke-linecap:round;stroke-linejoin:round;stroke-miterlimit:4;stroke-dasharray:none;stroke-dashoffset:0;stroke-opacity:0.95294118;paint-order:fill markers stroke;filter:url(#filter4049);color-rendering:auto;image-rendering:auto;shape-rendering:auto;text-rendering:auto;enable-background:accumulate"
       id="rect4220"
       width="35.454166"
       height="46.566666"
       x="239.39377"
       y="69.876801"
       ry="0"
       inkscape:export-filename="/home/cassiano/projetos/workspace-visualcode/ctpuzzle-test-platform/assets/ct/hand_tutorial_drag.png"
       inkscape:export-xdpi="96.18"
       inkscape:export-ydpi="96.18" />
    <path
       inkscape:export-ydpi="96.18"
       inkscape:export-xdpi="96.18"
       inkscape:export-filename="/home/cassiano/projetos/workspace-visualcode/ctpuzzle-test-platform/assets/ct/hand_tutorial_drag.png"
       sodipodi:nodetypes="cscccsccscsszscccsscsccccccsccccczc"
       inkscape:connector-curvature="0"
       id="path4222"
       d="m 251.3849,78.452527 c -1.75343,-0.036 -2.43029,1.72267 -2.29946,3.26143 l 0.66605,7.83386 0.7944,11.274763 c 0.0401,5.32066 -3.52415,-1.207834 -4.62682,-2.450053 -1.97573,-1.94787 -3.82549,-2.05686 -4.45697,-1.28538 -0.70549,0.861891 0.0653,3.260823 3.18358,6.929863 2.21674,3.70812 2.64286,6.68506 5.33242,9.39428 0.63755,0.6422 0.69155,1.65085 1.60037,1.67313 l 13.07566,0.32048 c 1.59089,-0.10458 2.03717,-1.26372 2.65583,-2.73597 1.65453,-3.9374 3.64397,-12.57002 4.51243,-18.826223 0.20777,-1.49674 0.49662,-3.07849 0.50922,-4.50292 0.0126,-1.42443 -0.45751,-2.37541 -1.63881,-2.35071 -1.52485,0.0319 -1.40879,2.26466 -2.28031,6.07533 l -1.57187,3.592901 -1.17194,-0.170342 c 0,0 0.43705,-3.262199 0.81341,-7.090189 0.29102,-2.96011 0.43776,-6.1719 0.42604,-8.56185 -0.007,-1.5158 -1.37735,-2.19143 -2.17351,-2.20799 -0.97281,-0.0238 -1.69062,0.72031 -1.79729,1.6558 l -0.96903,8.49838 -0.85894,6.84667 -1.07371,-0.0263 0.36579,-7.25477 0.35131,-9.02281 c -0.009,-1.30097 -0.84203,-2.87713 -2.31804,-2.8221 -1.0553,-0.0259 -2.42597,0.4539 -2.5049,2.84162 l -0.30515,9.23096 -0.31088,7.01158 -0.94886,-0.0233 -0.32055,-6.37276 -0.50957,-7.89689 c -0.108,-1.16238 -0.39645,-2.80513 -2.14989,-2.840991 z"
       style="color:#000000;clip-rule:nonzero;display:inline;overflow:visible;visibility:visible;opacity:1;isolation:auto;mix-blend-mode:normal;color-interpolation:sRGB;color-interpolation-filters:linearRGB;solid-color:#000000;solid-opacity:1;vector-effect:none;fill:#ffffff;fill-opacity:1;fill-rule:evenodd;stroke:#000000;stroke-width:0.5;stroke-linecap:round;stroke-linejoin:round;stroke-miterlimit:4;stroke-dasharray:none;stroke-dashoffset:0;stroke-opacity:0.95294118;paint-order:fill markers stroke;filter:url(#filter4049);color-rendering:auto;image-rendering:auto;shape-rendering:auto;text-rendering:auto;enable-background:accumulate" />
  </g>
</svg>
